<svg width="256" height="256" viewBox="0 0 256 256" fill="none" xmlns="http://www.w3.org/2000/svg">
<rect width="256" height="256" fill="#EFC42F"/>
<path d="M59.4365 163H9.98047V153.537L33.4385 128.336C35.2646 126.344 36.8086 124.534 38.0703 122.907C39.332 121.28 40.3447 119.803 41.1084 118.475C41.9053 117.113 42.4697 115.852 42.8018 114.689C43.167 113.527 43.3496 112.398 43.3496 111.303C43.3496 109.676 43.1172 108.231 42.6523 106.97C42.1875 105.708 41.5234 104.646 40.6602 103.782C39.8301 102.886 38.8174 102.205 37.6221 101.74C36.46 101.275 35.165 101.043 33.7373 101.043C29.9189 101.043 27.0635 102.105 25.1709 104.23C23.3115 106.355 22.3818 109.327 22.3818 113.146H8.48633C8.48633 109.925 9.10059 106.887 10.3291 104.031C11.5576 101.143 13.2842 98.6191 15.5088 96.4609C17.7666 94.3027 20.4727 92.6094 23.627 91.3809C26.8145 90.1191 30.334 89.4883 34.1855 89.4883C37.8711 89.4883 41.125 90.0029 43.9473 91.0322C46.8027 92.0615 49.1768 93.5059 51.0693 95.3652C52.9951 97.2246 54.4561 99.4658 55.4521 102.089C56.4482 104.679 56.9463 107.551 56.9463 110.705C56.9463 113.096 56.5645 115.387 55.8008 117.578C55.0703 119.736 54.0078 121.878 52.6133 124.003C51.252 126.128 49.6084 128.303 47.6826 130.527C45.7568 132.719 43.6152 135.026 41.2578 137.45L27.6113 151.894H59.4365V163ZM120.497 135.408C120.497 140.09 119.949 144.224 118.854 147.81C117.791 151.362 116.247 154.351 114.222 156.774C112.196 159.165 109.723 160.975 106.801 162.203C103.879 163.432 100.592 164.046 96.9395 164.046C93.3203 164.046 90.0498 163.432 87.1279 162.203C84.2061 160.975 81.7158 159.165 79.6572 156.774C77.6318 154.351 76.0547 151.362 74.9258 147.81C73.8301 144.224 73.2822 140.09 73.2822 135.408V118.076C73.2822 113.395 73.8301 109.277 74.9258 105.725C76.0215 102.139 77.582 99.1504 79.6074 96.7598C81.666 94.3359 84.1396 92.5098 87.0283 91.2812C89.9502 90.0527 93.2207 89.4385 96.8398 89.4385C100.492 89.4385 103.779 90.0527 106.701 91.2812C109.623 92.5098 112.097 94.3359 114.122 96.7598C116.181 99.1504 117.758 102.139 118.854 105.725C119.949 109.277 120.497 113.395 120.497 118.076V135.408ZM87.2275 129.432L106.552 115.038C106.452 110.157 105.605 106.538 104.012 104.181C102.418 101.823 100.027 100.645 96.8398 100.645C93.6191 100.645 91.2119 101.89 89.6182 104.38C88.0244 106.87 87.2275 110.705 87.2275 115.885V129.432ZM106.552 124.451L87.2275 138.795C87.3936 143.576 88.2734 147.129 89.8672 149.453C91.4609 151.744 93.8184 152.89 96.9395 152.89C100.193 152.89 102.601 151.628 104.161 149.104C105.755 146.581 106.552 142.713 106.552 137.5V124.451ZM174.983 136.056H183.4V147.262H174.983V163H161.138V147.262H131.006L130.458 138.596L160.938 90.4844H174.983V136.056ZM144.055 136.056H161.138V109.111L159.793 111.502L144.055 136.056ZM241.323 109.759C241.323 113.278 240.427 116.416 238.634 119.172C236.874 121.895 234.45 124.069 231.362 125.696C234.882 127.356 237.671 129.681 239.729 132.669C241.821 135.657 242.867 139.16 242.867 143.178C242.867 146.598 242.236 149.603 240.975 152.192C239.746 154.782 238.036 156.957 235.845 158.717C233.687 160.443 231.13 161.755 228.175 162.651C225.22 163.548 222.032 163.996 218.612 163.996C215.159 163.996 211.938 163.548 208.95 162.651C205.995 161.755 203.422 160.443 201.23 158.717C199.039 156.957 197.312 154.782 196.051 152.192C194.822 149.603 194.208 146.598 194.208 143.178C194.208 141.186 194.474 139.31 195.005 137.55C195.569 135.757 196.35 134.13 197.346 132.669C198.342 131.175 199.537 129.847 200.932 128.685C202.359 127.489 203.953 126.477 205.713 125.646C202.625 124.053 200.201 121.895 198.441 119.172C196.682 116.416 195.802 113.278 195.802 109.759C195.802 106.472 196.366 103.583 197.495 101.093C198.624 98.5693 200.185 96.4443 202.177 94.7178C204.202 92.9912 206.593 91.6963 209.349 90.833C212.138 89.9365 215.176 89.4883 218.463 89.4883C221.75 89.4883 224.788 89.9365 227.577 90.833C230.366 91.6963 232.773 92.9912 234.799 94.7178C236.857 96.4443 238.451 98.5693 239.58 101.093C240.742 103.583 241.323 106.472 241.323 109.759ZM228.972 142.231C228.972 140.571 228.723 139.077 228.225 137.749C227.727 136.421 227.013 135.292 226.083 134.362C225.187 133.399 224.091 132.669 222.796 132.171C221.534 131.673 220.106 131.424 218.513 131.424C216.919 131.424 215.475 131.673 214.18 132.171C212.918 132.669 211.839 133.399 210.942 134.362C210.046 135.292 209.349 136.421 208.851 137.749C208.353 139.077 208.104 140.571 208.104 142.231C208.104 145.552 209.05 148.158 210.942 150.051C212.835 151.943 215.392 152.89 218.612 152.89C220.14 152.89 221.534 152.657 222.796 152.192C224.058 151.694 225.137 150.98 226.033 150.051C226.963 149.121 227.677 148.009 228.175 146.714C228.706 145.386 228.972 143.892 228.972 142.231ZM227.527 110.406C227.527 108.945 227.312 107.617 226.88 106.422C226.448 105.227 225.834 104.214 225.037 103.384C224.273 102.521 223.327 101.856 222.198 101.392C221.103 100.927 219.857 100.694 218.463 100.694C215.641 100.694 213.466 101.558 211.938 103.284C210.411 105.011 209.647 107.385 209.647 110.406C209.647 111.867 209.847 113.212 210.245 114.44C210.644 115.636 211.225 116.665 211.988 117.528C212.785 118.392 213.731 119.072 214.827 119.57C215.956 120.035 217.218 120.268 218.612 120.268C220.007 120.268 221.252 120.035 222.348 119.57C223.443 119.072 224.373 118.392 225.137 117.528C225.9 116.665 226.481 115.636 226.88 114.44C227.312 113.212 227.527 111.867 227.527 110.406Z" fill="#FAF7F4"/>
</svg>
